:SAMPLES-PER-SECOND 30
:FULLY-SPECIFIED
:DEGREES
458
root  -66.8362 29.8929 -14.8511 -172.037 -0.433014 175.686
RightUpLeg  -18.8934 -2.495 -7.28597
RightLeg  53.3268 -5.80483 -6.84088
RightFoot  -29.1191 1.08461 4.55191
RightToes  -28.4552 -0.133429 -0.241087
Spine  11.3543 1.80864 3.19368
Spine1  20.5454 7.05448 1.51577
HEad  27.8464 -32.7162 18.4852
LeftShoulder1  0 -2.42657e-020 -4.95415e-022
LeftArm  -6.69956 -8.31581 -91.1576
LeftForeArm  42.6706 -37.9101 -7.87815
LeftHand  -0.165372 -10.7547 1.38766
RightShoulder  0 2.42657e-020 1.07489e-018
RightArm  -75.8183 21.4414 67.328
RightForeArm  54.1714 4.93056 0.844216
RightHand  -1.50869 16.1167 -10.2602
LeftUpLeg  -50.8403 5.3505 6.6199
LeftLeg  30.2921 -8.86732 -4.41965
LeftFoot  -3.12933 0.0048637 0.178048
LeftToes  -31.2271 3.33339e-006 -4.73431e-007
459
root  -67.4558 30.3356 -17.0404 -172.053 -2.33041 175.594
RightUpLeg  -11.5305 -2.7459 -7.99373
RightLeg  47.2847 -7.59788 -7.2106
RightFoot  -26.0963 1.00496 4.71207
RightToes  -30.9204 -0.15031 -0.258312
Spine  10.3775 1.32011 3.09675
Spine1  19.16 5.41372 2.19387
HEad  26.4898 -35.8981 21.8865
LeftShoulder1  0 -2.42657e-020 -4.95415e-022
LeftArm  -6.84035 -4.2343 -90.6608
LeftForeArm  43.0163 -41.629 -9.0062
LeftHand  -0.14978 -10.9722 1.1902
RightShoulder  0 2.42657e-020 1.07489e-018
RightArm  -71.1035 14.226 67.7751
RightForeArm  43.5119 12.1846 2.16553
RightHand  -1.40117 18.9885 -7.99639
LeftUpLeg  -49.0259 7.16536 1.99452
LeftLeg  30.2617 -7.4775 -3.72902
LeftFoot  -2.25582 0.00174986 0.088869
LeftToes  -29.4099 3.33339e-006 -4.73431e-007
460
root  -68.1748 30.7804 -19.439 -172.913 -2.29498 175.488
RightUpLeg  -5.57581 0.207269 -8.35636
RightLeg  44.9111 -10.4414 -9.04903
RightFoot  -18.3278 0.664669 4.49622
RightToes  -40.2677 -0.220625 -0.316629
Spine  9.58322 0.853775 2.72129
Spine1  17.9289 3.82123 2.3756
HEad  26.501 -37.4823 22.6504
LeftShoulder1  0 -2.42657e-020 -4.95415e-022
LeftArm  -8.06668 1.01869 -89.3068
LeftForeArm  43.6499 -45.5623 -10.3563
LeftHand  -0.171502 -10.8694 1.43345
RightShoulder  0 2.42657e-020 1.07489e-018
RightArm  -60.7677 5.85479 68.3571
RightForeArm  30.9514 21.6088 3.99756
RightHand  -0.640974 20.7222 -3.13568
LeftUpLeg  -43.9076 7.80128 -0.464748
LeftLeg  31.105 -5.96856 -3.09214
LeftFoot  -3.68996 0.00808916 0.251112
LeftToes  -20.4674 3.33339e-006 -4.73431e-007
461
root  -68.938 31.1278 -21.7342 -173.195 -1.95503 176.053
RightUpLeg  -4.83398 1.78788 -8.12029
RightLeg  49.4451 -11.5729 -11.6743
RightFoot  -7.20246 0.121481 2.30782
RightToes  -49.2534 -0.296295 -0.361211
Spine  8.48671 -0.123681 2.42566
Spine1  16.1159 1.21603 2.4903
HEad  27.9463 -37.4506 22.0494
LeftShoulder1  0 -2.42657e-020 -4.95415e-022
LeftArm  -10.7782 7.73037 -87.8923
LeftForeArm  44.0998 -50.3087 -12.2757
LeftHand  -0.224515 -10.5575 2.06104
RightShoulder  0 2.42657e-020 1.07489e-018
RightArm  -54.1262 -0.091362 69.0201
RightForeArm  31.6018 29.6599 5.75662
RightHand  -0.927724 20.9311 -4.65068
LeftUpLeg  -40.193 1.87329 1.77025
LeftLeg  31.3261 -9.18875 -4.78493
LeftFoot  3.4992 0.0226131 -0.740301
LeftToes  -29.0127 3.33339e-006 -4.73431e-007
462
root  -69.6162 31.5608 -23.9419 -173.387 -1.92258 175.272
RightUpLeg  -8.71819 3.12905 -8.35399
RightLeg  59.9715 -10.2962 -15.0646
RightFoot  2.51657 0.0220414 -0.625742
RightToes  -23.7903 -0.10358 -0.206576
Spine  7.82447 -1.5353 1.47469
Spine1  15.0731 -2.26736 1.49997
HEad  26.997 -36.5723 23.2802
LeftShoulder1  0 -2.42657e-020 -4.95415e-022
LeftArm  -12.6761 12.9119 -85.0042
LeftForeArm  43.6228 -53.5138 -13.8157
LeftHand  -0.256535 -10.1268 2.52647
RightShoulder  0 2.42657e-020 1.07489e-018
RightArm  -52.1746 -3.02606 71.5569
RightForeArm  37.3663 36.467 7.48237
RightHand  -1.66926 21.3091 -8.4883
LeftUpLeg  -36.9376 -3.72539 1.56518
LeftLeg  32.3163 -8.85863 -4.81025
LeftFoot  6.87173 0.0749286 -1.24796
LeftToes  -23.1749 3.33339e-006 -4.73431e-007
463
root  -70.1533 31.8628 -26.0416 -174.199 -1.07007 174.38
RightUpLeg  -14.3995 4.62114 -8.15579
RightLeg  69.0477 -3.72782 -8.22055
RightFoot  4.30161 0.0349104 -0.551891
RightToes  -24.9235 -0.110571 -0.215182
Spine  7.79806 -2.32424 0.686124
Spine1  15.1034 -4.10439 0.203965
HEad  26.4997 -35.9026 24.5824
LeftShoulder1  0 -2.42657e-020 -4.95415e-022
LeftArm  -12.5104 15.28 -81.2801
LeftForeArm  41.9159 -54.6792 -14.4399
LeftHand  -0.152269 -9.97615 1.37549
RightShoulder  0 2.42657e-020 1.07489e-018
RightArm  -48.698 -6.75902 74.3866
RightForeArm  43.5455 49.684 12.0082
RightHand  -2.2444 21.96 -11.1636
LeftUpLeg  -33.4795 -5.58549 0.00457551
LeftLeg  34.2975 -6.15487 -3.63472
LeftFoot  3.52352 0.0142413 -0.463014
LeftToes  -22.2653 3.33339e-006 -4.73431e-007
464
root  -70.6237 32.1152 -28.0591 -174.989 0.473724 174.42
RightUpLeg  -20.5625 4.20567 -6.66941
RightLeg  73.9543 -0.356009 -1.21812
RightFoot  2.26151 0.00575016 0.0861989
RightToes  -31.39 -0.153609 -0.26151
Spine  7.81692 -2.59678 0.534966
Spine1  15.1265 -4.58377 -0.349336
HEad  27.1532 -35.6064 24.8525
LeftShoulder1  0 -2.42657e-020 -4.95415e-022
LeftArm  -11.2131 15.6692 -78.5787
LeftForeArm  40.7109 -53.2888 -13.7041
LeftHand  -0.135202 -10.105 1.15998
RightShoulder  0 2.42657e-020 1.07489e-018
RightArm  -43.8752 -9.41326 75.745
RightForeArm  48.1822 59.5897 17.5421
RightHand  -2.9516 18.1479 -17.9637
LeftUpLeg  -29.3538 -4.85975 -1.27027
LeftLeg  35.1165 -5.00365 -3.05611
LeftFoot  -0.622597 0.000279036 0.0513479
LeftToes  -19.3592 3.33339e-006 -4.73431e-007
465
root  -71.0199 32.4267 -30.0007 -175.085 2.55406 174.859
RightUpLeg  -27.1443 1.61043 -4.2865
RightLeg  73.8662 -1.15814 -3.43286
RightFoot  -0.695113 -0.0012397 0.173356
RightToes  -30.1781 -0.145149 -0.253202
Spine  7.74545 -2.67524 0.644548
Spine1  14.9421 -4.66224 -0.515024
HEad  27.7707 -35.093 24.8505
LeftShoulder1  0 -2.42657e-020 -4.95415e-022
LeftArm  -10.4686 14.6394 -77.1886
LeftForeArm  39.521 -50.5787 -12.4034
LeftHand  -0.0532672 -9.98673 0.239872
RightShoulder  0 2.42657e-020 1.07489e-018
RightArm  -43.5473 -9.39995 77.6742
RightForeArm  57.8785 66.6629 24.2398
RightHand  -3.91047 17.6321 -24.4658
LeftUpLeg  -25.3507 -3.90496 -1.90884
LeftLeg  34.6175 -3.85559 -2.3122
LeftFoot  -3.879 0.00994701 0.293727
LeftToes  -17.4064 3.33339e-006 -4.73431e-007
466
root  -71.4188 32.7101 -31.8672 -175.354 5.34813 175.219
RightUpLeg  -32.4581 -0.709634 -1.40577
RightLeg  69.0048 -2.79661 -6.21489
RightFoot  -3.56333 0.00442355 0.51986
RightToes  -25.3813 -0.113443 -0.218618
Spine  7.84034 -2.58162 0.876505
Spine1  15.05 -4.42592 -0.440286
HEad  28.092 -34.5515 24.6227
LeftShoulder1  0 -2.42657e-020 -4.95415e-022
LeftArm  -10.112 12.732 -77.1872
LeftForeArm  38.1888 -47.5227 -11.1127
LeftHand  0.0283248 -9.87991 -0.698152
RightShoulder  0 2.42657e-020 1.07489e-018
RightArm  -43.7203 -6.18944 78.7626
RightForeArm  68.3734 68.268 26.3583
RightHand  -4.62437 18.7955 -27.0587
LeftUpLeg  -20.9246 -1.63985 -2.78048
LeftLeg  33.3275 -3.09195 -1.76254
LeftFoot  -6.40502 0.0214914 0.38409
LeftToes  -14.8161 3.33339e-006 -4.73431e-007
467
root  -71.8719 32.8342 -33.7152 -175.575 8.1274 175.247
RightUpLeg  -36.3348 -2.73759 1.56644
RightLeg  60.4584 -3.30577 -5.11913
RightFoot  -4.23348 0.00399287 0.485658
RightToes  -26.449 -0.120248 -0.226544
Spine  8.02976 -2.38474 1.08904
Spine1  15.3118 -4.02853 -0.338151
HEad  27.7818 -34.4437 24.7291
LeftShoulder1  0 -2.42657e-020 -4.95415e-022
LeftArm  -8.82323 9.69203 -77.862
LeftForeArm  37.1674 -44.5507 -9.99942
LeftHand  0.0585925 -9.76217 -1.0568
RightShoulder  0 2.42657e-020 1.07489e-018
RightArm  -39.6775 -2.13838 77.6064
RightForeArm  69.7005 65.3682 22.6627
RightHand  -5.10727 18.3444 -30.5214
LeftUpLeg  -16.606 -0.54748 -4.12311
LeftLeg  31.8391 -1.42076 -0.764309
LeftFoot  -8.94393 0.0184162 0.235463
LeftToes  -11.8979 3.33339e-006 -4.73431e-007
468
root  -72.3759 32.7707 -35.6016 -175.885 10.4665 174.491
RightUpLeg  -38.8658 -5.50218 4.39691
RightLeg  49.6453 -1.5778 -1.67595
RightFoot  -1.91481 -0.00581656 0.029502
RightToes  -30.9245 -0.150338 -0.25834
Spine  8.17425 -2.21231 1.10803
Spine1  15.4848 -3.8102 -0.293116
HEad  26.9636 -35.2112 25.1867
LeftShoulder1  0 -2.42657e-020 -4.95415e-022
LeftArm  -6.02441 5.16993 -78.8964
LeftForeArm  36.3769 -40.421 -8.63377
LeftHand  0.0503096 -9.8932 -0.951891
RightShoulder  0 2.42657e-020 1.07489e-018
RightArm  -34.0872 2.60451 75.722
RightForeArm  68.6704 56.2321 15.2625
RightHand  -6.06173 18.5055 -35.6513
LeftUpLeg  -12.2988 -0.240858 -6.51482
LeftLeg  30.0907 0.603431 0.295927
LeftFoot  -11.5672 -0.0146241 -0.144391
LeftToes  -8.97615 3.33339e-006 -4.73431e-007
469
root  -72.8813 32.3775 -37.489 -175.803 12.1584 172.966
RightUpLeg  -41.7933 -9.89326 8.08548
RightLeg  39.6383 2.29393 1.64113
RightFoot  3.71724 0.0127027 -0.0138948
RightToes  -40.5585 -0.22296 -0.318255
Spine  8.41498 -1.54838 1.15398
Spine1  15.6132 -2.40752 -0.673264
HEad  25.7053 -37.2667 26.9851
LeftShoulder1  0 -2.42657e-020 -4.95415e-022
LeftArm  -2.53938 -1.32035 -81.1916
LeftForeArm  36.4246 -34.7914 -7.02706
LeftHand  0.103218 -9.73569 -1.58301
RightShoulder  0 2.42657e-020 1.07489e-018
RightArm  -32.363 8.69695 73.9266
RightForeArm  69.4582 38.6915 8.04584
RightHand  -7.51811 21.0672 -38.5614
LeftUpLeg  -10.0104 0.118325 -9.74186
LeftLeg  30.9637 1.91627 0.984158
LeftFoot  -14.6705 -0.0700046 -0.543824
LeftToes  -5.7098 3.33339e-006 -4.73431e-007
470
root  -73.3704 31.6758 -39.4795 -176.096 13.2537 170.782
RightUpLeg  -46.3682 -17.0759 13.6169
RightLeg  35.0453 5.87876 3.55838
RightFoot  10.3907 -0.0264541 0.668445
RightToes  -45.9258 -0.267466 -0.346091
Spine  9.16713 -0.865432 1.44742
Spine1  16.2956 -1.18914 -0.894408
HEad  23.7642 -39.8977 29.2227
LeftShoulder1  0 -2.42657e-020 -4.95415e-022
LeftArm  0.99352 -7.79628 -84.443
LeftForeArm  37.1557 -32.0755 -6.33176
LeftHand  0.21635 -9.98858 -2.84726
RightShoulder  0 2.42657e-020 1.07489e-018
RightArm  -38.232 15.0202 72.6696
RightForeArm  71.3864 24.2673 4.47837
RightHand  -7.22901 24.7636 -31.7432
LeftUpLeg  -8.76159 1.06399 -13.5459
LeftLeg  34.4726 2.42216 1.43825
LeftFoot  -18.0942 -0.133143 -0.836176
LeftToes  -4.47391 3.33339e-006 -4.73431e-007
471
root  -73.8538 30.8878 -41.5232 -176.533 13.5079 169.087
RightUpLeg  -51.9192 -26.5729 22.2978
RightLeg  34.5345 -0.153704 -0.105933
RightFoot  13.6721 0.182745 -1.14669
RightToes  -42.4135 -0.238045 -0.328346
Spine  9.59818 -0.749089 2.02186
Spine1  16.4687 -1.67469 0.377348
HEad  22.0171 -43.3821 30.4943
LeftShoulder1  0 -2.42657e-020 -4.95415e-022
LeftArm  4.76663 -12.9788 -88.9486
LeftForeArm  39.4762 -29.1119 -5.61841
LeftHand  0.249366 -10.4725 -3.09248
RightShoulder  0 2.42657e-020 1.07489e-018
RightArm  -52.2014 20.6371 69.9111
RightForeArm  69.7834 11.5499 1.99585
RightHand  -4.73917 24.5374 -21.183
LeftUpLeg  -7.86832 1.8897 -16.7306
LeftLeg  39.4264 2.19608 1.57462
LeftFoot  -20.7241 -0.156005 -0.853179
LeftToes  -4.77023 3.33339e-006 -4.73431e-007
